<svg id="Componente_1_1" data-name="Componente 1 – 1" xmlns="http://www.w3.org/2000/svg" xmlns:xlink="http://www.w3.org/1999/xlink" width="250" height="362.721" viewBox="0 0 250 362.721">
  <defs>
    <clipPath id="clip-path">
      <rect id="Retângulo_11" data-name="Retângulo 11" width="123.892" height="34.57" fill="none"/>
    </clipPath>
  </defs>
  <g id="Grupo_1" data-name="Grupo 1" transform="translate(0 148.932)">
    <path id="Caminho_1" data-name="Caminho 1" d="M683.219,309.57v-.192c0-19.557,15.339-34.9,36.143-34.9,11.791,0,20.132,3.643,27.227,9.779l-10.93,13.134c-4.793-4.027-9.586-6.328-16.2-6.328-9.683,0-17.161,8.149-17.161,18.407v.192c0,10.833,7.574,18.6,18.215,18.6,4.506,0,7.958-.959,10.738-2.78v-8.148H718.019V303.722h30.87v30.2a45.37,45.37,0,0,1-29.144,10.354C698.846,344.274,683.219,329.894,683.219,309.57Z" transform="translate(-683.219 -274.482)" fill="#f5f5f5"/>
    <path id="Caminho_2" data-name="Caminho 2" d="M767.072,313.656V275.979h18.887v37.293c0,9.682,4.889,14.284,12.367,14.284s12.367-4.41,12.367-13.805V275.979h18.886v37.2c0,21.666-12.367,31.157-31.445,31.157S767.072,334.651,767.072,313.656Z" transform="translate(-691.912 -274.637)" fill="#f5f5f5"/>
    <path id="Caminho_3" data-name="Caminho 3" d="M849.536,275.979h18.695v67.109H849.536Z" transform="translate(-700.462 -274.637)" fill="#f5f5f5"/>
    <path id="Caminho_4" data-name="Caminho 4" d="M906.661,275.444h17.927l28.57,67.588H933.217l-4.889-11.984H902.442l-4.794,11.984H878.092Zm16.3,41.128-7.478-19.077-7.574,19.077Z" transform="translate(-703.422 -274.582)" fill="#f5f5f5"/>
  </g>
  <g id="Grupo_2" data-name="Grupo 2" transform="translate(0 218.097)">
    <path id="Caminho_5" data-name="Caminho 5" d="M683.219,361.683h21.925v6.426H690.7v4.128h13.085V378.2H690.7v4.323h14.643v6.426h-22.12Z" transform="translate(-683.219 -352.687)" fill="#f5f5f5"/>
    <path id="Caminho_6" data-name="Caminho 6" d="M712.2,361.683h10.515c9.737,0,15.384,5.608,15.384,13.474v.078c0,7.867-5.725,13.708-15.54,13.708H712.2Zm10.632,20.563c4.517,0,7.516-2.493,7.516-6.893v-.079c0-4.362-3-6.893-7.516-6.893h-3.077v13.864Z" transform="translate(-686.223 -352.687)" fill="#f5f5f5"/>
    <path id="Caminho_7" data-name="Caminho 7" d="M745.607,361.683H753.2v27.261h-7.595Z" transform="translate(-689.687 -352.687)" fill="#f5f5f5"/>
    <path id="Caminho_8" data-name="Caminho 8" d="M759.64,361.683h21.809v6.62H767.2v4.634h12.891v6.271H767.2v9.736H759.64Z" transform="translate(-691.142 -352.687)" fill="#f5f5f5"/>
    <path id="Caminho_9" data-name="Caminho 9" d="M787.967,361.683h7.595v27.261h-7.595Z" transform="translate(-694.079 -352.687)" fill="#f5f5f5"/>
    <path id="Caminho_10" data-name="Caminho 10" d="M800.957,375.328v-.078a14,14,0,0,1,14.371-14.175c5.569,0,9.151,2.337,11.566,5.685l-5.685,4.4a7.3,7.3,0,0,0-5.959-3.194c-3.817,0-6.5,3.232-6.5,7.2v.078c0,4.089,2.687,7.283,6.5,7.283,2.843,0,4.517-1.324,6.153-3.31l5.685,4.051a14.352,14.352,0,0,1-26.132-7.945Z" transform="translate(-695.425 -352.624)" fill="#f5f5f5"/>
    <path id="Caminho_11" data-name="Caminho 11" d="M842.628,361.466h7.283l11.606,27.455h-8.1l-1.985-4.868H840.914l-1.947,4.868h-7.945Zm6.621,16.707-3.039-7.75-3.076,7.75Z" transform="translate(-698.542 -352.664)" fill="#f5f5f5"/>
    <path id="Caminho_12" data-name="Caminho 12" d="M872.475,393.126,875.512,389A13.763,13.763,0,0,1,865,375.328v-.078a14,14,0,0,1,14.37-14.175c5.57,0,9.151,2.337,11.566,5.685l-5.685,4.4a7.3,7.3,0,0,0-5.959-3.194c-3.817,0-6.5,3.232-6.5,7.2v.078c0,4.089,2.687,7.283,6.5,7.283,2.843,0,4.517-1.324,6.153-3.31l5.685,4.051a13.527,13.527,0,0,1-10.631,6.075l-2.181,6.27Z" transform="translate(-702.065 -352.624)" fill="#f5f5f5"/>
    <path id="Caminho_13" data-name="Caminho 13" d="M906.711,360.448h7.283L925.6,387.9h-8.1l-1.986-4.868H905l-1.948,4.868H895.1Zm-4.673-2.727c.857-3.855,2.219-5.8,4.907-5.8,2.336,0,5.14,1.519,6.426,1.519,1.09,0,1.518-.584,2.025-1.792l3.543.973c-.817,3.856-2.219,5.764-4.868,5.764-2.337,0-5.179-1.518-6.426-1.518-1.09,0-1.558.583-2.063,1.829Zm11.293,19.433-3.037-7.75-3.077,7.75Z" transform="translate(-705.186 -351.646)" fill="#f5f5f5"/>
    <path id="Caminho_14" data-name="Caminho 14" d="M929.079,375.328v-.078c0-7.828,6.31-14.175,14.722-14.175s14.642,6.27,14.642,14.1v.078c0,7.828-6.309,14.175-14.721,14.175S929.079,383.156,929.079,375.328Zm21.654,0v-.078a7.085,7.085,0,0,0-7.011-7.361c-4.128,0-6.893,3.35-6.893,7.283v.078a7.077,7.077,0,0,0,6.972,7.361C947.968,382.611,950.733,379.261,950.733,375.328Z" transform="translate(-708.708 -352.624)" fill="#f5f5f5"/>
  </g>
  <g id="Grupo_3" data-name="Grupo 3" transform="translate(0 262.968)">
    <path id="Caminho_15" data-name="Caminho 15" d="M683.219,436.929l6.233-7.446a20.812,20.812,0,0,0,13.1,4.848c3,0,4.617-1.039,4.617-2.771v-.115c0-1.674-1.328-2.6-6.81-3.868-8.6-1.962-15.238-4.387-15.238-12.7v-.116c0-7.5,5.945-12.929,15.641-12.929,6.869,0,12.237,1.847,16.623,5.367l-5.6,7.907a20.268,20.268,0,0,0-11.313-3.982c-2.712,0-4.04,1.154-4.04,2.6v.115c0,1.847,1.386,2.656,6.984,3.926,9.292,2.019,15.064,5.02,15.064,12.582v.116c0,8.253-6.522,13.16-16.334,13.16C694.993,443.625,688.183,441.373,683.219,436.929Z" transform="translate(-683.219 -401.721)" fill="#f5f5f5"/>
    <path id="Caminho_16" data-name="Caminho 16" d="M728.614,402.609h32.5v9.523H739.7v6.118h19.393v8.831H739.7v6.407h21.7v9.523H728.614Z" transform="translate(-687.925 -401.801)" fill="#f5f5f5"/>
    <path id="Caminho_17" data-name="Caminho 17" d="M769.7,422.833v-.116c0-11.774,9.235-21.009,21.759-21.009a23.567,23.567,0,0,1,16.392,5.887l-6.58,7.907a14.258,14.258,0,0,0-9.755-3.809c-5.829,0-10.331,4.906-10.331,11.081v.116c0,6.523,4.56,11.2,10.967,11.2a11.416,11.416,0,0,0,6.464-1.674v-4.906h-7.965v-8.2h18.584v18.181a27.315,27.315,0,0,1-17.546,6.234C779.1,443.727,769.7,435.069,769.7,422.833Z" transform="translate(-692.184 -401.708)" fill="#f5f5f5"/>
    <path id="Caminho_18" data-name="Caminho 18" d="M820.178,425.292V402.609h11.371v22.453c0,5.83,2.944,8.6,7.445,8.6s7.446-2.655,7.446-8.311V402.609H857.81V425c0,13.044-7.446,18.758-18.931,18.758S820.178,437.932,820.178,425.292Z" transform="translate(-697.418 -401.801)" fill="#f5f5f5"/>
    <path id="Caminho_19" data-name="Caminho 19" d="M869.566,402.609h19.1c6.176,0,10.447,1.617,13.159,4.387a12.523,12.523,0,0,1,3.579,9.408v.116c0,6.176-3.29,10.275-8.312,12.41l9.639,14.083H893.807l-8.138-12.236h-4.906v12.236h-11.2ZM888.15,422c3.81,0,6-1.847,6-4.791V417.1c0-3.175-2.308-4.79-6.06-4.79h-7.33V422Z" transform="translate(-702.538 -401.801)" fill="#f5f5f5"/>
    <path id="Caminho_20" data-name="Caminho 20" d="M928.62,402.288h10.792l17.2,40.691H944.607l-2.944-7.215H926.08l-2.886,7.215H911.42Zm9.811,24.76-4.5-11.486-4.56,11.486Z" transform="translate(-706.877 -401.768)" fill="#f5f5f5"/>
  </g>
  <path id="Caminho_21" data-name="Caminho 21" d="M961.84,255.048" transform="translate(-712.104 -123.535)" fill="none" stroke="#303133" stroke-miterlimit="10" stroke-width="1"/>
  <path id="Caminho_22" data-name="Caminho 22" d="M808.087,129.315,683.219,220.369v21.644L701.1,228.972v16.1h21.644V213.189l85.34-62.23Z" transform="translate(-683.219 -110.5)" fill="#f5f5f5"/>
  <g id="Grupo_4" data-name="Grupo 4" transform="translate(99.475 0)">
    <rect id="Retângulo_1" data-name="Retângulo 1" width="0.896" height="90.21" transform="translate(103.316 44.363)" fill="#f5f5f5"/>
    <rect id="Retângulo_2" data-name="Retângulo 2" width="0.896" height="90.21" transform="translate(121.244 44.363)" fill="#f5f5f5"/>
    <rect id="Retângulo_3" data-name="Retângulo 3" width="0.896" height="185.641" transform="matrix(0.589, -0.808, 0.808, 0.589, 0, 22.497)" fill="#f5f5f5"/>
    <path id="Caminho_23" data-name="Caminho 23" d="M961.84,229.757" transform="translate(-811.58 -120.913)" fill="none" stroke="#fff" stroke-miterlimit="10" stroke-width="1"/>
    <rect id="Retângulo_4" data-name="Retângulo 4" width="0.896" height="185.641" transform="matrix(0.589, -0.808, 0.808, 0.589, 0, 0.724)" fill="#f5f5f5"/>
  </g>
  <g id="Grupo_5" data-name="Grupo 5" transform="translate(107.201 88.762)">
    <rect id="Retângulo_5" data-name="Retângulo 5" width="15.581" height="15.581" fill="#f5f5f5"/>
    <rect id="Retângulo_6" data-name="Retângulo 6" width="15.581" height="15.581" transform="translate(20.304)" fill="#f5f5f5"/>
    <rect id="Retângulo_7" data-name="Retângulo 7" width="15.581" height="15.581" transform="translate(0 19.858)" fill="#f5f5f5"/>
    <rect id="Retângulo_8" data-name="Retângulo 8" width="15.581" height="15.581" transform="translate(20.304 19.858)" fill="#f5f5f5"/>
  </g>
  <g id="FIESP_RGB" data-name="FIESP RGB" transform="translate(62.922 328.151)">
    <g id="Grupo_9" data-name="Grupo 9" transform="translate(0)">
      <g id="Grupo_8" data-name="Grupo 8" clip-path="url(#clip-path)">
        <rect id="Retângulo_9" data-name="Retângulo 9" width="123.837" height="34.57" transform="translate(0.054 0)" fill="red"/>
        <g id="Grupo_7" data-name="Grupo 7" transform="translate(0 0)">
          <g id="Grupo_6" data-name="Grupo 6" clip-path="url(#clip-path)">
            <path id="Caminho_24" data-name="Caminho 24" d="M771.294,504.5h-6.81l5.21-24.593H787.1l-.99,4.77H775.519l-1.224,5.721h9.843l-1.022,4.768H773.27Zm13.862,0,5.212-24.593h6.812L791.968,504.5Zm11.413,0,5.209-24.593h18.736l-.99,4.77H807.6l-1.088,5.074h10.967l-1.021,4.768H805.492l-1.092,5.211h11.922L815.3,504.5Zm39.506-17.339a4.208,4.208,0,0,0,.1-.9,2.069,2.069,0,0,0-.614-1.445,3.185,3.185,0,0,0-2.349-.654,3.886,3.886,0,0,0-2.2.663q-1.006.665-1.126,1.191a3.963,3.963,0,0,0-.118.8,1.66,1.66,0,0,0,1.089,1.633,19.377,19.377,0,0,0,2.758.92q1.671.444,3.78.989,4.363,1.465,4.362,5.143a19.278,19.278,0,0,1-.493,3.218q-.5,2.369-4,4.327a16.372,16.372,0,0,1-8.109,1.958,13.982,13.982,0,0,1-6.776-1.4,5.028,5.028,0,0,1-2.52-4.8,12.823,12.823,0,0,1,.205-2.147h6.809a4.938,4.938,0,0,0-.1.92,2.308,2.308,0,0,0,.92,1.975,4.213,4.213,0,0,0,2.555.681,5.517,5.517,0,0,0,2.573-.666c.85-.44,1.327-.919,1.43-1.428a7.382,7.382,0,0,0,.154-.938q0-1.635-3.8-2.572a30.231,30.231,0,0,1-5.344-1.685,4.935,4.935,0,0,1-2.216-1.89,5.142,5.142,0,0,1-.664-2.64,5.438,5.438,0,0,1,.036-.733c.021-.169.066-.46.133-.867a8.491,8.491,0,0,1,4.379-5.723,16.767,16.767,0,0,1,7.749-1.7,12.733,12.733,0,0,1,6.113,1.315,4.46,4.46,0,0,1,2.435,4.223,7.957,7.957,0,0,1-.34,2.226Zm7.939,17.339,5.209-24.593h11.31a12.624,12.624,0,0,1,6.367,1.3,4.655,4.655,0,0,1,2.181,4.357,21.89,21.89,0,0,1-.56,3.783,7.093,7.093,0,0,1-3.546,4.531,14.674,14.674,0,0,1-7.781,1.839h-4.5l-1.873,8.788Zm13.214-13.556a4.889,4.889,0,0,0,3.046-.852,3.207,3.207,0,0,0,1.31-1.774,6.7,6.7,0,0,0,.205-1.293,2.082,2.082,0,0,0-.781-1.738,3.989,3.989,0,0,0-2.453-.61H855.05l-1.33,6.267Z" transform="translate(-754.566 -474.945)" fill="#fff" fill-rule="evenodd"/>
            <path id="Caminho_25" data-name="Caminho 25" d="M753.419,503.353H760.5v.9h-7.079Zm0-5.652H760.5v.853h-7.079Zm0-5.892H760.5v.9h-7.079Zm0-5.8H760.5v.856h-7.079Zm0-5.655H760.5v.856h-7.079Z" transform="translate(-753.419 -475.044)" fill="#fff" fill-rule="evenodd"/>
            <path id="Caminho_26" data-name="Caminho 26" d="M883.74,503.113h7.08v.9h-7.08Zm0-5.653h7.08v.853h-7.08Zm0-5.892h7.08v.9h-7.08Zm0-5.8h7.08v.855h-7.08Zm0-5.655h7.08v.856h-7.08Z" transform="translate(-766.93 -475.019)" fill="#fff" fill-rule="evenodd"/>
          </g>
        </g>
      </g>
    </g>
  </g>
</svg>
